{
    "asset" : {
        "generator" : "Khronos glTF Blender I/O v1.6.16",
        "version" : "2.0"
    },
    "scene" : 0,
    "scenes" : [
        {
            "name" : "Scene",
            "nodes" : [
                1,
                2,
                3
            ]
        }
    ],
    "nodes" : [
        {
            "mesh" : 0,
            "name" : "upspring.003",
            "translation" : [
                0.09150676429271698,
                -0.19519762694835663,
                -5.704778671264648
            ]
        },
        {
            "children" : [
                0
            ],
            "mesh" : 1,
            "name" : "upspring",
            "rotation" : [
                0.7071068286895752,
                0,
                0,
                0.7071067094802856
            ],
            "scale" : [
                1,
                1,
                0.7445590496063232
            ],
            "translation" : [
                -0.26575911045074463,
                -6.9327921867370605,
                0.16280454397201538
            ]
        },
        {
            "mesh" : 2,
            "name" : "blackbar",
            "scale" : [
                0.7933399677276611,
                0.7933399677276611,
                0.7933399677276611
            ],
            "translation" : [
                8.499595642089844,
                -1.0513553619384766,
                6.298182010650635
            ]
        },
        {
            "mesh" : 3,
            "name" : "Cylinder.002",
            "rotation" : [
                0.7071068286895752,
                0,
                0,
                0.7071068286895752
            ],
            "scale" : [
                0.38514748215675354,
                0.38514748215675354,
                0.38514748215675354
            ],
            "translation" : [
                6.535523891448975,
                3.434673309326172,
                0.7176046371459961
            ]
        }
    ],
    "materials" : [
        {
            "doubleSided" : true,
            "name" : "Material.004",
            "pbrMetallicRoughness" : {
                "baseColorFactor" : [
                    0.05221778154373169,
                    0.05221778154373169,
                    0.05221778154373169,
                    1
                ],
                "metallicFactor" : 0,
                "roughnessFactor" : 0.5
            }
        },
        {
            "doubleSided" : true,
            "name" : "Material.003",
            "pbrMetallicRoughness" : {
                "baseColorFactor" : [
                    0,
                    0,
                    0,
                    1
                ],
                "metallicFactor" : 0,
                "roughnessFactor" : 0.5
            }
        },
        {
            "doubleSided" : true,
            "name" : "Material.001",
            "pbrMetallicRoughness" : {
                "baseColorFactor" : [
                    0.8000000715255737,
                    0.08718729019165039,
                    0,
                    1
                ],
                "metallicFactor" : 0,
                "roughnessFactor" : 0.5
            }
        },
        {
            "doubleSided" : true,
            "name" : "Material.002",
            "pbrMetallicRoughness" : {
                "metallicFactor" : 0.5
            }
        }
    ],
    "meshes" : [
        {
            "name" : "Circle.002",
            "primitives" : [
                {
                    "attributes" : {
                        "POSITION" : 0,
                        "NORMAL" : 1,
                        "TEXCOORD_0" : 2
                    },
                    "indices" : 3,
                    "material" : 0
                },
                {
                    "attributes" : {
                        "POSITION" : 4,
                        "NORMAL" : 5,
                        "TEXCOORD_0" : 6
                    },
                    "indices" : 7,
                    "material" : 1
                }
            ]
        },
        {
            "name" : "Circle.015",
            "primitives" : [
                {
                    "attributes" : {
                        "POSITION" : 8,
                        "NORMAL" : 9,
                        "TEXCOORD_0" : 10
                    },
                    "indices" : 11,
                    "material" : 2
                }
            ]
        },
        {
            "name" : "Cube.010",
            "primitives" : [
                {
                    "attributes" : {
                        "POSITION" : 12,
                        "NORMAL" : 13,
                        "TEXCOORD_0" : 14
                    },
                    "indices" : 15,
                    "material" : 1
                }
            ]
        },
        {
            "name" : "Cylinder.002",
            "primitives" : [
                {
                    "attributes" : {
                        "POSITION" : 16,
                        "NORMAL" : 17,
                        "TEXCOORD_0" : 18
                    },
                    "indices" : 19,
                    "material" : 1
                },
                {
                    "attributes" : {
                        "POSITION" : 20,
                        "NORMAL" : 21,
                        "TEXCOORD_0" : 22
                    },
                    "indices" : 23,
                    "material" : 3
                }
            ]
        }
    ],
    "accessors" : [
        {
            "bufferView" : 0,
            "componentType" : 5126,
            "count" : 25823,
            "max" : [
                3.5823490619659424,
                2.2430062294006348,
                0.07463884353637695
            ],
            "min" : [
                -3.7867937088012695,
                -1.9148879051208496,
                -5.554765701293945
            ],
            "type" : "VEC3"
        },
        {
            "bufferView" : 1,
            "componentType" : 5126,
            "count" : 25823,
            "type" : "VEC3"
        },
        {
            "bufferView" : 2,
            "componentType" : 5126,
            "count" : 25823,
            "type" : "VEC2"
        },
        {
            "bufferView" : 3,
            "componentType" : 5123,
            "count" : 152544,
            "type" : "SCALAR"
        },
        {
            "bufferView" : 4,
            "componentType" : 5126,
            "count" : 29512,
            "max" : [
                3.5818123817443848,
                2.2430062294006348,
                0.07463884353637695
            ],
            "min" : [
                -3.752305030822754,
                -1.9148879051208496,
                -5.554765701293945
            ],
            "type" : "VEC3"
        },
        {
            "bufferView" : 5,
            "componentType" : 5126,
            "count" : 29512,
            "type" : "VEC3"
        },
        {
            "bufferView" : 6,
            "componentType" : 5126,
            "count" : 29512,
            "type" : "VEC2"
        },
        {
            "bufferView" : 7,
            "componentType" : 5123,
            "count" : 174336,
            "type" : "SCALAR"
        },
        {
            "bufferView" : 8,
            "componentType" : 5126,
            "count" : 24,
            "max" : [
                3.734074115753174,
                2.13836669921875,
                0.025995731353759766
            ],
            "min" : [
                -3.734074115753174,
                -2.138367176055908,
                -5.739930629730225
            ],
            "type" : "VEC3"
        },
        {
            "bufferView" : 9,
            "componentType" : 5126,
            "count" : 24,
            "type" : "VEC3"
        },
        {
            "bufferView" : 10,
            "componentType" : 5126,
            "count" : 24,
            "type" : "VEC2"
        },
        {
            "bufferView" : 11,
            "componentType" : 5123,
            "count" : 36,
            "type" : "SCALAR"
        },
        {
            "bufferView" : 12,
            "componentType" : 5126,
            "count" : 152,
            "max" : [
                4.914458751678467,
                5.008761405944824,
                1.2527425289154053
            ],
            "min" : [
                -4.8628129959106445,
                0.02358412742614746,
                -3.6560604572296143
            ],
            "type" : "VEC3"
        },
        {
            "bufferView" : 13,
            "componentType" : 5126,
            "count" : 152,
            "type" : "VEC3"
        },
        {
            "bufferView" : 14,
            "componentType" : 5126,
            "count" : 152,
            "type" : "VEC2"
        },
        {
            "bufferView" : 15,
            "componentType" : 5123,
            "count" : 180,
            "type" : "SCALAR"
        },
        {
            "bufferView" : 16,
            "componentType" : 5126,
            "count" : 688,
            "max" : [
                2.8707046508789062,
                4.399402618408203,
                2.5506858825683594
            ],
            "min" : [
                -2.8077526092529297,
                2.399402141571045,
                -2.6512928009033203
            ],
            "type" : "VEC3"
        },
        {
            "bufferView" : 17,
            "componentType" : 5126,
            "count" : 688,
            "type" : "VEC3"
        },
        {
            "bufferView" : 18,
            "componentType" : 5126,
            "count" : 688,
            "type" : "VEC2"
        },
        {
            "bufferView" : 19,
            "componentType" : 5123,
            "count" : 1656,
            "type" : "SCALAR"
        },
        {
            "bufferView" : 20,
            "componentType" : 5126,
            "count" : 559,
            "max" : [
                4.521366596221924,
                4.521360397338867,
                4.521355628967285
            ],
            "min" : [
                -4.521352291107178,
                -4.521355628967285,
                -4.521368980407715
            ],
            "type" : "VEC3"
        },
        {
            "bufferView" : 21,
            "componentType" : 5126,
            "count" : 559,
            "type" : "VEC3"
        },
        {
            "bufferView" : 22,
            "componentType" : 5126,
            "count" : 559,
            "type" : "VEC2"
        },
        {
            "bufferView" : 23,
            "componentType" : 5123,
            "count" : 2880,
            "type" : "SCALAR"
        }
    ],
    "bufferViews" : [
        {
            "buffer" : 0,
            "byteLength" : 309876,
            "byteOffset" : 0
        },
        {
            "buffer" : 0,
            "byteLength" : 309876,
            "byteOffset" : 309876
        },
        {
            "buffer" : 0,
            "byteLength" : 206584,
            "byteOffset" : 619752
        },
        {
            "buffer" : 0,
            "byteLength" : 305088,
            "byteOffset" : 826336
        },
        {
            "buffer" : 0,
            "byteLength" : 354144,
            "byteOffset" : 1131424
        },
        {
            "buffer" : 0,
            "byteLength" : 354144,
            "byteOffset" : 1485568
        },
        {
            "buffer" : 0,
            "byteLength" : 236096,
            "byteOffset" : 1839712
        },
        {
            "buffer" : 0,
            "byteLength" : 348672,
            "byteOffset" : 2075808
        },
        {
            "buffer" : 0,
            "byteLength" : 288,
            "byteOffset" : 2424480
        },
        {
            "buffer" : 0,
            "byteLength" : 288,
            "byteOffset" : 2424768
        },
        {
            "buffer" : 0,
            "byteLength" : 192,
            "byteOffset" : 2425056
        },
        {
            "buffer" : 0,
            "byteLength" : 72,
            "byteOffset" : 2425248
        },
        {
            "buffer" : 0,
            "byteLength" : 1824,
            "byteOffset" : 2425320
        },
        {
            "buffer" : 0,
            "byteLength" : 1824,
            "byteOffset" : 2427144
        },
        {
            "buffer" : 0,
            "byteLength" : 1216,
            "byteOffset" : 2428968
        },
        {
            "buffer" : 0,
            "byteLength" : 360,
            "byteOffset" : 2430184
        },
        {
            "buffer" : 0,
            "byteLength" : 8256,
            "byteOffset" : 2430544
        },
        {
            "buffer" : 0,
            "byteLength" : 8256,
            "byteOffset" : 2438800
        },
        {
            "buffer" : 0,
            "byteLength" : 5504,
            "byteOffset" : 2447056
        },
        {
            "buffer" : 0,
            "byteLength" : 3312,
            "byteOffset" : 2452560
        },
        {
            "buffer" : 0,
            "byteLength" : 6708,
            "byteOffset" : 2455872
        },
        {
            "buffer" : 0,
            "byteLength" : 6708,
            "byteOffset" : 2462580
        },
        {
            "buffer" : 0,
            "byteLength" : 4472,
            "byteOffset" : 2469288
        },
        {
            "buffer" : 0,
            "byteLength" : 5760,
            "byteOffset" : 2473760
        }
    ],
    "buffers" : [
        {
            "byteLength" : 2479520,
            "uri" : "data:application/octet-stream;base64,"
        }
    ]
}
